<svg version="1.1" id="Layer_1" xmlns="http://www.w3.org/2000/svg" xmlns:xlink="http://www.w3.org/1999/xlink" x="0px" y="0px"
	 width="100%" viewBox="0 0 1664 512" enable-background="new 0 0 1664 512" xml:space="preserve">
<path fill="#FFFFFF" opacity="1.000000" stroke="none"
	d="
M414.255066,284.325806 
	C392.263367,320.320404 370.656830,356.111420 348.674683,391.670258 
	C329.104584,423.327423 308.806946,454.539490 289.581970,486.401459 
	C285.790009,492.685974 282.054596,494.175537 275.417084,494.133453 
	C233.785126,493.869537 192.150650,494.000000 149.788086,494.000000 
	C154.306976,486.604218 158.526825,479.626831 162.815491,472.691986 
	C176.523758,450.525421 190.272034,428.383575 203.976776,406.214813 
	C214.548386,389.114197 225.079346,371.988464 235.625168,354.871948 
	C243.638611,341.865662 251.655685,328.861511 259.630493,315.831543 
	C260.002930,315.223053 260.371185,314.113281 260.080658,313.671875 
	C255.053192,306.033752 249.921967,298.463928 244.560181,290.503235 
	C234.115463,307.535156 224.063477,323.998413 213.938950,340.416931 
	C203.043243,358.085999 192.072861,375.708954 181.147186,393.359558 
	C168.105713,414.428223 155.039764,435.481903 142.057770,456.587189 
	C134.902603,468.219635 127.966301,479.987396 120.726395,491.566040 
	C119.945229,492.815308 117.798668,493.893280 116.280914,493.899261 
	C82.959747,494.031006 49.637943,493.999817 15.238698,493.999817 
	C90.181602,372.590637 164.735046,251.812408 239.384705,130.878281 
	C262.825439,165.501999 286.117401,199.905930 309.871185,234.992065 
	C354.056183,163.543808 397.757141,92.878220 441.700684,21.820349 
	C447.508942,30.272739 453.303772,38.599945 458.990570,47.000305 
	C478.786774,76.242867 498.497223,105.543594 518.337524,134.756134 
	C529.401855,151.046982 540.746948,167.147156 551.808105,183.440063 
	C569.011169,208.779861 586.021790,234.250275 603.222473,259.591675 
	C620.075928,284.421692 637.108276,309.130280 653.982605,333.946228 
	C671.118713,359.147095 688.115295,384.442871 705.254272,409.641785 
	C716.420044,426.058380 727.742554,442.368256 738.972656,458.741119 
	C745.995911,468.980621 752.986145,479.242767 759.967102,489.511139 
	C760.763306,490.682281 761.403564,491.959442 762.452515,493.767059 
	C760.675476,493.864929 759.449097,493.991241 758.222717,493.991516 
	C715.891968,494.001709 673.561218,493.977173 631.230591,494.047180 
	C628.135010,494.052307 626.431213,493.096893 624.590759,490.345062 
	C606.481567,463.267883 588.140259,436.345520 569.796204,409.425934 
	C558.072571,392.221588 546.153625,375.149994 534.465149,357.921906 
	C516.544128,331.507538 498.803833,304.970520 480.874390,278.561890 
	C470.095947,262.686157 459.103943,246.955414 447.745178,230.488663 
	C436.604126,248.415817 425.540466,266.218536 414.255066,284.325806 
z"/>
<path fill="#FFFFFF" opacity="1.000000" stroke="none" 
	d="
M924.731323,198.660461 
	C918.996094,215.921509 913.551025,232.862823 907.877258,249.727203 
	C907.419250,251.088516 905.403076,252.842453 904.090210,252.859924 
	C887.939514,253.074814 871.785034,252.999908 855.371887,252.999908 
	C844.785889,219.744965 834.224365,186.566895 823.500000,152.877136 
	C823.500000,210.476074 823.500000,267.444489 823.500000,324.706757 
	C803.060974,324.706757 782.325378,324.706757 761.294312,324.706757 
	C761.294312,224.074799 761.294312,123.353722 761.294312,22.298655 
	C762.226929,22.209633 763.324463,22.014336 764.422119,22.013449 
	C786.583313,21.995577 808.744751,22.050566 830.905396,21.937664 
	C833.757080,21.923138 835.112671,22.592009 836.087097,25.520466 
	C849.295166,65.214134 862.649841,104.859116 876.019165,144.498962 
	C878.409912,151.587341 881.031006,158.598007 883.583435,165.750198 
	C899.526611,117.915962 915.441833,70.165619 931.436523,22.176884 
	C954.612671,22.176884 978.053589,22.176884 1001.747375,22.176884 
	C1001.747375,123.008751 1001.747375,223.729706 1001.747375,324.725433 
	C980.689697,324.725433 959.621155,324.725433 938.500000,324.725433 
	C938.500000,268.674652 938.500000,212.592270 938.500000,155.854858 
	C933.873230,170.368927 929.417969,184.344910 924.731323,198.660461 
z"/>
<path fill="#FFFFFF" opacity="1.000000" stroke="none" 
	d="
M1287.766602,297.350098 
	C1274.994141,284.171478 1268.394287,268.223724 1264.005493,251.150604 
	C1260.042969,235.734848 1259.091797,219.969284 1260.141724,204.229691 
	C1261.479370,184.179489 1265.150879,164.554871 1274.850952,146.522385 
	C1287.711182,122.614830 1306.649658,106.808365 1333.846680,101.996742 
	C1357.287231,97.849686 1380.207031,98.497322 1401.837524,109.981903 
	C1414.817139,116.873390 1424.663574,126.865662 1432.173218,139.481949 
	C1441.106201,154.489700 1445.918579,170.731659 1446.872070,187.989273 
	C1447.543945,200.149399 1447.002075,212.376602 1447.002075,224.958023 
	C1403.896484,224.958023 1360.166138,224.958023 1315.793213,224.958023 
	C1317.453613,243.842209 1320.348267,262.046906 1337.654663,272.641357 
	C1353.855225,282.558716 1381.931641,279.808075 1390.317871,255.142990 
	C1408.723022,255.142990 1427.176880,255.142990 1446.095215,255.142990 
	C1441.919312,270.047241 1435.532104,283.388062 1425.512451,295.105865 
	C1411.957153,310.958405 1394.761719,319.472412 1374.486084,323.101471 
	C1352.871094,326.970276 1332.028564,324.906281 1312.153442,315.839233 
	C1302.925659,311.629578 1294.512329,305.729858 1287.766602,297.350098 
M1364.343384,143.999771 
	C1346.824341,140.268616 1329.600830,147.085861 1322.735718,164.929581 
	C1319.949707,172.170776 1318.709351,180.006607 1316.719238,187.752655 
	C1342.252930,187.752655 1366.994263,187.752655 1391.725342,187.752655 
	C1392.393677,168.411285 1384.702026,148.398972 1364.343384,143.999771 
z"/>
<path fill="#FFFFFF" opacity="1.000000" stroke="none" 
	d="
M1518.145508,107.014687 
	C1529.565918,102.306175 1541.059937,100.001755 1553.048340,99.982040 
	C1566.657104,99.959663 1580.202759,99.694008 1593.472046,103.923973 
	C1618.993774,112.059746 1636.426147,127.650055 1642.023315,154.705643 
	C1642.282959,155.961365 1642.855103,157.175598 1642.956909,158.435425 
	C1643.116699,160.410706 1642.999390,162.408432 1642.999390,164.698044 
	C1625.449463,164.698044 1608.032349,164.698044 1590.276245,164.698044 
	C1587.756226,153.892136 1581.553223,146.124023 1570.083130,143.577148 
	C1559.187500,141.157837 1548.262695,140.288498 1539.226562,148.434189 
	C1531.271484,155.605423 1532.567749,169.054871 1543.096802,173.352509 
	C1554.473999,177.996353 1566.340332,181.556732 1578.184814,184.914078 
	C1596.710205,190.165176 1614.769775,196.486359 1629.951660,208.644699 
	C1641.056396,217.537827 1646.400391,229.732864 1648.186890,243.979095 
	C1649.621338,255.418594 1649.271973,266.597870 1645.740601,277.343781 
	C1638.768555,298.560730 1623.534058,311.850525 1602.739624,318.943207 
	C1587.248413,324.227112 1571.126343,325.853882 1554.903564,324.875458 
	C1538.894287,323.909943 1523.132080,321.090271 1508.919922,312.963623 
	C1492.409058,303.522400 1481.217896,289.740082 1476.015625,271.331329 
	C1474.535889,266.095398 1473.374512,260.769531 1471.929199,254.927383 
	C1473.379883,254.602417 1474.723267,254.044434 1476.068848,254.039246 
	C1491.896484,253.978210 1507.724731,254.038345 1523.552246,253.962296 
	C1526.188965,253.949631 1527.380249,254.562210 1528.317139,257.453583 
	C1533.086060,272.170776 1545.112793,281.082916 1561.412231,280.887299 
	C1567.863159,280.809875 1574.538696,280.292206 1580.682129,278.501099 
	C1588.605103,276.191162 1591.546143,269.381653 1591.983032,261.530975 
	C1592.449585,253.145248 1588.502930,246.841034 1581.096558,243.795425 
	C1570.912720,239.607620 1560.186768,236.760529 1549.831299,232.962006 
	C1536.763550,228.168625 1523.375000,223.925232 1510.951172,217.775009 
	C1490.743652,207.771622 1479.588257,191.516571 1479.842529,167.976303 
	C1480.003418,153.067764 1482.876831,139.429794 1491.940308,127.333458 
	C1498.757690,118.234802 1507.567261,111.791023 1518.145508,107.014687 
z"/>
<path fill="#3399FF" opacity="1.000000" stroke="none" 
	d="
M348.888855,442.954926 
	C350.212952,440.518677 351.537079,438.082428 353.353394,435.278564 
	C355.128540,433.483612 356.624207,432.194427 357.657043,430.604553 
	C361.688019,424.399750 365.662079,418.153839 369.488312,411.821136 
	C374.062836,404.249939 378.464355,396.574249 382.940826,388.943817 
	C389.116974,391.188354 391.553833,396.981781 394.923340,401.801971 
	C401.424805,411.102417 407.690735,420.567535 414.190277,430.165131 
	C426.234161,410.721863 437.983337,391.730011 449.758057,372.753998 
	C458.140045,359.245575 466.491699,345.717560 474.984589,332.279022 
	C479.329437,325.403961 481.435883,325.380798 485.982208,332.016266 
	C497.364410,348.628967 508.678467,365.288544 519.987366,381.951324 
	C536.397949,406.131042 552.824402,430.300140 569.154968,454.533813 
	C577.132446,466.371887 584.908569,478.345612 592.613037,490.901062 
	C590.994934,492.027771 589.539612,492.511353 588.084351,492.994995 
	C584.106812,493.217621 580.129272,493.633575 576.151733,493.633179 
	C531.524597,493.628906 486.897339,493.485870 442.270325,493.533295 
	C407.155579,493.570587 372.041046,493.821594 336.369110,493.538055 
	C334.157623,493.342407 332.503418,493.586365 330.849243,493.830322 
	C327.948853,493.852661 325.048431,493.875031 321.954041,493.129517 
	C321.840057,491.907776 321.920044,491.453888 322.039429,490.631989 
	C324.885376,485.451324 327.640442,480.607758 330.510712,475.833466 
	C334.575226,469.072754 338.874725,462.448120 342.762268,455.588806 
	C344.265656,452.936188 344.917664,449.801086 345.957550,446.885803 
	C345.974243,446.538391 346.129944,446.272308 346.991608,446.007324 
	C348.001984,444.936371 348.445435,443.945648 348.888855,442.954926 
z"/>
<path fill="#FFFFFF" opacity="1.000000" stroke="none" 
	d="
M1222.000000,130.000000 
	C1222.000000,195.140579 1222.000000,259.781158 1222.000000,324.710754 
	C1201.050171,324.710754 1180.312012,324.710754 1159.286377,324.710754 
	C1159.286377,224.046066 1159.286377,123.312378 1159.286377,22.289215 
	C1179.949829,22.289215 1200.687988,22.289215 1222.000000,22.289215 
	C1222.000000,57.978580 1222.000000,93.739288 1222.000000,130.000000 
z"/>
<path fill="#FFFFFF" opacity="1.000000" stroke="none" 
	d="
M1057.037720,104.000000 
	C1075.506836,104.000000 1093.479858,104.000000 1111.725952,104.000000 
	C1111.725952,177.646072 1111.725952,251.047470 1111.725952,324.724609 
	C1090.688843,324.724609 1069.617676,324.724609 1048.272705,324.724609 
	C1048.272705,251.351028 1048.272705,177.949646 1048.272705,104.000000 
	C1050.995728,104.000000 1053.768677,104.000000 1057.037720,104.000000 
z"/>
<path fill="#FFFFFF" opacity="1.000000" stroke="none" 
	d="
M908.000000,414.123108 
	C908.000000,418.240784 908.000000,421.876038 908.000000,425.901733 
	C924.362305,425.901733 940.436523,425.901733 956.752930,425.901733 
	C956.752930,433.367035 956.752930,440.438080 956.752930,447.909485 
	C940.628967,447.909485 924.555115,447.909485 908.243103,447.909485 
	C908.243103,455.041534 908.243103,461.779449 908.243103,468.917297 
	C926.046082,468.917297 943.786011,468.917297 961.760620,468.917297 
	C961.760620,477.383240 961.760620,485.454010 961.760620,493.763367 
	C933.279358,493.763367 904.878052,493.763367 876.238098,493.763367 
	C876.238098,457.949799 876.238098,422.216187 876.238098,386.241058 
	C904.045166,386.241058 931.779846,386.241058 959.757629,386.241058 
	C959.757629,394.043030 959.757629,401.780792 959.757629,410.000000 
	C943.750183,410.000000 927.809387,410.068481 911.870239,409.936951 
	C908.995972,409.913269 907.333069,410.347229 908.000000,414.123108 
z"/>
<path fill="#FFFFFF" opacity="1.000000" stroke="none" 
	d="
M1029.000000,401.003723 
	C1029.000000,395.862518 1029.000000,391.220551 1029.000000,386.290100 
	C1038.607056,386.290100 1048.008545,386.290100 1057.706299,386.290100 
	C1057.706299,421.922363 1057.706299,457.641083 1057.706299,493.680237 
	C1049.122559,493.680237 1040.387695,493.680237 1031.301392,493.680237 
	C1031.301392,490.788055 1031.301392,487.703644 1031.301392,483.556305 
	C1029.482422,485.216003 1028.235596,486.132660 1027.259155,487.279480 
	C1019.289001,496.640411 1008.900085,496.454193 998.463684,493.838776 
	C990.923889,491.949249 985.870300,486.486664 982.630432,479.243896 
	C975.372253,463.018188 974.949158,446.965942 981.859375,430.393951 
	C989.640991,411.732208 1015.275513,408.562103 1029.000000,422.204346 
	C1029.000000,414.908142 1029.000000,408.205536 1029.000000,401.003723 
M1023.923523,439.386414 
	C1017.014709,434.632690 1011.194275,436.152069 1007.871216,443.627563 
	C1004.581482,451.028107 1005.230896,458.670624 1007.634399,465.975342 
	C1010.103699,473.479736 1019.862976,475.172516 1025.019897,469.469788 
	C1030.789185,463.089935 1030.465454,446.336578 1023.923523,439.386414 
z"/>
<path fill="#FFFFFF" opacity="1.000000" stroke="none" 
	d="
M1295.658325,440.999329 
	C1286.771240,440.088013 1278.325073,439.176086 1269.811890,438.256927 
	C1273.581543,419.557312 1284.788574,414.986267 1299.559692,414.155334 
	C1308.584351,413.647675 1317.706299,414.485687 1326.764160,415.047028 
	C1337.357422,415.703552 1346.876221,424.421448 1347.876587,435.050842 
	C1348.787720,444.730469 1348.671753,454.507080 1348.998413,464.241302 
	C1349.326172,474.008087 1347.452759,483.991974 1352.665039,493.676178 
	C1343.171265,493.676178 1334.447998,493.676178 1325.030396,493.676178 
	C1324.237793,491.221893 1323.320435,488.381470 1322.296265,485.209869 
	C1312.861694,495.565491 1300.054077,496.170380 1287.277222,494.792847 
	C1277.242920,493.711060 1268.406494,486.735046 1267.910034,474.155792 
	C1267.229614,456.923218 1277.684326,452.155548 1292.198120,448.934998 
	C1300.637451,447.062378 1308.948853,444.595276 1317.271606,442.233398 
	C1318.621704,441.850281 1320.887085,440.134094 1320.771240,439.859436 
	C1319.765259,437.472839 1318.855225,434.212402 1316.895020,433.210449 
	C1309.665161,429.514923 1301.757568,432.827545 1297.799316,440.418182 
	C1297.598755,440.802612 1296.682251,440.813751 1295.658325,440.999329 
M1309.430298,460.997681 
	C1306.577881,462.003662 1303.488281,462.618103 1300.955444,464.151733 
	C1299.233398,465.194458 1297.430298,467.400482 1297.154907,469.302277 
	C1296.152344,476.222687 1301.258545,479.893402 1308.615112,477.746857 
	C1316.702515,475.387054 1322.214111,469.096252 1320.725098,457.173462 
	C1317.209839,458.446838 1313.732910,459.706268 1309.430298,460.997681 
z"/>
<path fill="#FFFFFF" opacity="1.000000" stroke="none" 
	d="
M1109.279297,468.669495 
	C1118.659058,474.350586 1125.548950,469.249603 1125.936768,460.999023 
	C1126.519165,448.607056 1126.680664,436.195068 1126.989746,423.790802 
	C1127.059326,420.998108 1127.000000,418.202240 1127.000000,415.210785 
	C1136.776245,415.210785 1146.181152,415.210785 1156.000000,415.210785 
	C1156.000000,425.160217 1156.000000,434.946014 1156.000000,444.731842 
	C1156.000000,459.564697 1155.894043,474.398834 1156.073975,489.229523 
	C1156.119263,492.965027 1154.942993,494.197357 1151.215332,494.071899 
	C1143.935791,493.826843 1136.642090,494.000000 1128.973145,494.000000 
	C1128.973145,489.889740 1128.973145,486.178741 1128.973145,482.012512 
	C1118.154663,495.365570 1109.492310,496.970978 1094.130493,493.948639 
	C1083.934204,491.942596 1078.422363,481.905060 1078.134766,471.051453 
	C1077.645386,452.582306 1078.000000,434.090790 1078.000000,415.304626 
	C1087.582397,415.304626 1096.989380,415.304626 1107.000000,415.304626 
	C1107.000000,421.107330 1107.000000,427.036987 1107.000000,432.966675 
	C1107.000000,441.633057 1106.823486,450.304962 1107.093384,458.962952 
	C1107.191406,462.104095 1108.356323,465.212036 1109.279297,468.669495 
z"/>
<path fill="#FFFFFF" opacity="1.000000" stroke="none" 
	d="
M1573.000000,464.000000 
	C1573.000000,447.527832 1573.000000,431.555664 1573.000000,415.292175 
	C1581.605225,415.292175 1590.009277,415.292175 1598.767822,415.292175 
	C1598.767822,418.940765 1598.767822,422.687378 1598.767822,427.183533 
	C1602.058716,424.106995 1604.632324,421.335693 1607.567383,419.023071 
	C1617.952759,410.840149 1641.855103,410.575562 1648.008057,428.139587 
	C1648.847534,430.535889 1649.892578,433.047821 1649.912598,435.513794 
	C1650.069580,454.815643 1649.999512,474.119354 1649.999512,493.710876 
	C1640.721802,493.710876 1631.651367,493.710876 1622.000000,493.710876 
	C1622.000000,484.035095 1622.116577,474.272400 1621.956543,464.514252 
	C1621.859497,458.604034 1621.144409,452.703552 1621.060547,446.793671 
	C1620.992554,442.010986 1618.995483,438.922058 1614.324341,438.055237 
	C1609.213501,437.106842 1604.389893,440.025024 1603.038330,445.109497 
	C1601.966553,449.140991 1601.177856,453.363495 1601.089600,457.518707 
	C1600.835571,469.485229 1601.000000,481.460602 1601.000000,493.715668 
	C1591.711914,493.715668 1582.641602,493.715668 1573.000000,493.715668 
	C1573.000000,484.023926 1573.000000,474.261963 1573.000000,464.000000 
z"/>
<path fill="#FFFFFF" opacity="1.000000" stroke="none" 
	d="
M1548.993408,426.927612 
	C1558.755981,439.301605 1559.773560,452.793762 1556.347168,467.285126 
	C1552.481201,483.636902 1535.283447,496.154541 1518.260864,495.126221 
	C1510.287231,494.644562 1502.450073,494.894226 1494.995361,491.078278 
	C1482.573242,484.719513 1475.714111,474.445862 1474.167969,461.031006 
	C1472.927612,450.270264 1474.128052,439.602936 1480.942017,430.329987 
	C1488.408447,420.169434 1498.122070,414.276245 1510.895630,414.018646 
	C1519.859131,413.837921 1528.995239,413.160980 1537.110596,418.048065 
	C1541.260620,420.547241 1545.020874,423.693481 1548.993408,426.927612 
M1503.236450,462.757935 
	C1503.496216,463.494629 1503.754028,464.231934 1504.015991,464.967834 
	C1506.103271,470.831879 1510.531982,474.639740 1515.405518,474.761688 
	C1520.716431,474.894623 1526.916626,470.865509 1527.738159,464.742706 
	C1528.688843,457.656769 1528.777344,450.083801 1527.254395,443.159088 
	C1526.109497,437.953674 1519.816650,432.631439 1512.143799,435.877045 
	C1507.212280,437.962982 1503.169312,443.119019 1503.022461,448.955872 
	C1502.913818,453.268585 1503.010132,457.586426 1503.236450,462.757935 
z"/>
<path fill="#FFFFFF" opacity="1.000000" stroke="none" 
	d="
M1182.001221,425.977844 
	C1199.770508,410.073578 1219.442261,410.730316 1239.794556,419.064514 
	C1246.936646,421.989258 1250.898193,428.314789 1253.968628,435.122375 
	C1254.689453,436.720398 1255.205200,438.410828 1256.118774,440.878021 
	C1249.351562,441.921722 1242.615112,442.966919 1235.875977,443.994568 
	C1234.588501,444.190918 1233.235596,444.619598 1232.011719,444.397400 
	C1230.618652,444.144470 1228.636841,443.638519 1228.120483,442.625763 
	C1225.001831,436.509491 1221.783813,434.646729 1214.537354,434.963531 
	C1209.975952,435.162933 1204.686157,439.332947 1202.872925,444.532837 
	C1200.074829,452.557068 1199.771729,460.399017 1204.025269,467.975555 
	C1206.515991,472.412262 1210.700928,475.230377 1215.595093,474.791962 
	C1220.431763,474.358704 1225.575928,473.006897 1227.852783,467.536194 
	C1228.531982,465.904327 1229.343384,464.327362 1230.230225,462.435028 
	C1239.097778,463.557709 1248.088989,464.696045 1257.164062,465.845001 
	C1252.893555,484.224121 1239.089233,495.487335 1221.492432,495.010101 
	C1212.533325,494.767151 1203.681030,495.336945 1194.811279,492.220642 
	C1184.211914,488.496674 1173.931274,474.908081 1172.778687,463.755219 
	C1171.991211,456.136200 1171.593384,448.703857 1174.143433,441.592957 
	C1176.055542,436.261047 1179.311279,431.410980 1182.001221,425.977844 
z"/>
<path fill="#FFFFFF" opacity="1.000000" stroke="none" 
	d="
M1102.961182,22.000000 
	C1106.104492,22.000000 1108.752930,22.000000 1111.698975,22.000000 
	C1111.698975,41.588882 1111.698975,60.990398 1111.698975,80.696625 
	C1090.749512,80.696625 1069.681641,80.696625 1048.000000,80.696625 
	C1048.000000,76.574631 1048.000000,72.313919 1048.000000,68.053215 
	C1048.000000,54.391010 1048.130615,40.726768 1047.917603,27.067886 
	C1047.856445,23.148594 1048.949585,21.861454 1052.983521,21.912672 
	C1069.475464,22.122059 1085.971680,22.000002 1102.961182,22.000000 
z"/>
<path fill="#FFFFFF" opacity="1.000000" stroke="none" 
	d="
M1414.000000,481.022583 
	C1414.003418,482.479279 1413.865601,483.502380 1414.032715,484.472931 
	C1415.441406,492.650787 1415.557495,493.527740 1407.817749,494.401642 
	C1399.910034,495.294525 1391.671387,494.960358 1383.777832,493.800842 
	C1375.740967,492.620239 1371.721069,486.172485 1371.148926,478.591644 
	C1370.254639,466.741699 1370.329224,454.818451 1370.005493,442.925903 
	C1369.965454,441.453674 1370.000000,439.979401 1370.000000,438.130585 
	C1366.671631,438.130585 1363.587402,438.130585 1360.259521,438.130585 
	C1360.259521,430.344360 1360.259521,422.940369 1360.259521,415.145233 
	C1363.316772,415.145233 1366.395142,415.145233 1370.000000,415.145233 
	C1370.000000,411.173981 1369.868286,407.560150 1370.069336,403.964874 
	C1370.142700,402.653381 1370.637451,400.720612 1371.569214,400.202240 
	C1380.376831,395.301971 1389.320435,390.646027 1398.714722,385.659576 
	C1398.714722,395.529541 1398.714722,404.905457 1398.714722,414.674561 
	C1403.791870,414.674561 1408.535522,414.674561 1413.639404,414.674561 
	C1413.639404,422.453400 1413.639404,429.858673 1413.639404,437.836975 
	C1409.102905,437.836975 1404.234253,437.836975 1399.000610,437.836975 
	C1399.000610,448.514374 1398.849121,458.628937 1399.082397,468.734619 
	C1399.164673,472.296600 1401.663452,473.833099 1405.232910,473.274567 
	C1407.627075,472.899933 1410.012817,472.470825 1412.793579,471.999817 
	C1413.195801,474.855042 1413.597900,477.709839 1414.000000,481.022583 
z"/>
<path fill="#FFFFFF" opacity="1.000000" stroke="none" 
	d="
M1458.000000,487.911774 
	C1458.000000,490.054077 1458.000000,491.707855 1458.000000,493.679352 
	C1448.782837,493.679352 1439.709717,493.679352 1430.316895,493.679352 
	C1430.316895,467.773804 1430.316895,441.703430 1430.316895,415.316040 
	C1439.224365,415.316040 1448.297852,415.316040 1458.000000,415.316040 
	C1458.000000,439.249390 1458.000000,463.336334 1458.000000,487.911774 
z"/>
<path fill="#FFFFFF" opacity="1.000000" stroke="none" 
	d="
M1430.000000,395.024780 
	C1430.000000,391.886383 1430.000000,389.239685 1430.000000,386.297302 
	C1439.261963,386.297302 1448.333374,386.297302 1457.703735,386.297302 
	C1457.703735,392.929260 1457.703735,399.668701 1457.703735,406.705627 
	C1448.732178,406.705627 1439.660767,406.705627 1430.000000,406.705627 
	C1430.000000,403.050812 1430.000000,399.283661 1430.000000,395.024780 
z"/>
<path fill="#3399FF" opacity="1.000000" stroke="none" 
	d="
M382.619019,388.970062 
	C378.464355,396.574249 374.062836,404.249939 369.488312,411.821136 
	C365.662079,418.153839 361.688019,424.399750 357.657043,430.604553 
	C356.624207,432.194427 355.128540,433.483612 353.506134,434.955536 
	C356.068207,429.829926 358.827911,424.573669 361.901642,419.507965 
	C367.782715,409.815582 373.818695,400.216583 379.873596,390.631378 
	C380.350098,389.877045 381.474152,389.531738 382.619019,388.970062 
z"/>
<path fill="#3399FF" opacity="1.000000" stroke="none" 
	d="
M345.639954,447.028015 
	C344.917664,449.801086 344.265656,452.936188 342.762268,455.588806 
	C338.874725,462.448120 334.575226,469.072754 330.510712,475.833466 
	C327.640442,480.607758 324.885376,485.451324 321.567078,490.617065 
	C320.425964,490.934753 319.796661,490.899353 319.167389,490.863983 
	C327.885681,476.299377 336.604004,461.734802 345.639954,447.028015 
z"/>
<path fill="#3398FF" opacity="1.000000" stroke="none" 
	d="
M588.217590,493.346924 
	C589.539612,492.511353 590.994934,492.027771 592.751221,491.220276 
	C594.044617,494.247437 594.044617,494.247437 588.217590,493.346924 
z"/>
<path fill="#3399FF" opacity="1.000000" stroke="none" 
	d="
M331.208618,493.903870 
	C332.503418,493.586365 334.157623,493.342407 335.905396,493.465607 
	C334.522003,493.880981 333.044983,493.929199 331.208618,493.903870 
z"/>
<path fill="#3398FF" opacity="1.000000" stroke="none" 
	d="
M319.072021,491.129089 
	C319.796661,490.899353 320.425964,490.934753 321.527618,490.985046 
	C321.920044,491.453888 321.840057,491.907776 321.531342,493.030518 
	C320.527283,492.931000 319.751953,492.162598 319.072021,491.129089 
z"/>
<path fill="#3399FF" opacity="1.000000" stroke="none" 
	d="
M348.589264,443.077606 
	C348.445435,443.945648 348.001984,444.936371 347.221680,445.942749 
	C347.353119,445.039001 347.821411,444.119659 348.589264,443.077606 
z"/>
<path fill="#000000" opacity="1.000000" stroke="none" 
	d="
M1364.777344,144.000610 
	C1384.702026,148.398972 1392.393677,168.411285 1391.725342,187.752655 
	C1366.994263,187.752655 1342.252930,187.752655 1316.719238,187.752655 
	C1318.709351,180.006607 1319.949707,172.170776 1322.735718,164.929581 
	C1329.600830,147.085861 1346.824341,140.268616 1364.777344,144.000610 
z"/>
<path fill="#000000" opacity="1.000000" stroke="none" 
	d="
M1024.186646,439.677307 
	C1030.465454,446.336578 1030.789185,463.089935 1025.019897,469.469788 
	C1019.862976,475.172516 1010.103699,473.479736 1007.634399,465.975342 
	C1005.230896,458.670624 1004.581482,451.028107 1007.871216,443.627563 
	C1011.194275,436.152069 1017.014709,434.632690 1024.186646,439.677307 
z"/>
<path fill="#000000" opacity="1.000000" stroke="none" 
	d="
M1309.843262,460.981689 
	C1313.732910,459.706268 1317.209839,458.446838 1320.725098,457.173462 
	C1322.214111,469.096252 1316.702515,475.387054 1308.615112,477.746857 
	C1301.258545,479.893402 1296.152344,476.222687 1297.154907,469.302277 
	C1297.430298,467.400482 1299.233398,465.194458 1300.955444,464.151733 
	C1303.488281,462.618103 1306.577881,462.003662 1309.843262,460.981689 
z"/>
<path fill="#000000" opacity="1.000000" stroke="none" 
	d="
M1503.125854,462.329956 
	C1503.010132,457.586426 1502.913818,453.268585 1503.022461,448.955872 
	C1503.169312,443.119019 1507.212280,437.962982 1512.143799,435.877045 
	C1519.816650,432.631439 1526.109497,437.953674 1527.254395,443.159088 
	C1528.777344,450.083801 1528.688843,457.656769 1527.738159,464.742706 
	C1526.916626,470.865509 1520.716431,474.894623 1515.405518,474.761688 
	C1510.531982,474.639740 1506.103271,470.831879 1504.015991,464.967834 
	C1503.754028,464.231934 1503.496216,463.494629 1503.125854,462.329956 
z"/>
</svg>