<svg version="1.1" id="Layer_1" xmlns="http://www.w3.org/2000/svg" xmlns:xlink="http://www.w3.org/1999/xlink" x="0px" y="0px"
	 width="100%" viewBox="0 0 512 512" enable-background="new 0 0 512 512" xml:space="preserve">
<path fill="#FFFFFF" opacity="1.000000" stroke="none"
	d="
M1.000000,189.468658
	C1.666481,188.186646 2.817377,187.434143 2.928297,186.551010
	C5.428307,166.646179 10.367024,147.367798 17.731028,128.723221
	C25.321222,109.505943 34.611202,91.158249 46.952080,74.523087
	C53.147228,66.172180 59.747044,58.105976 66.458717,50.160088
	C70.014977,45.949860 73.870522,41.849613 78.189400,38.462879
	C83.463577,34.327034 92.350937,35.224148 97.084846,39.568012
	C102.433624,44.476093 103.702026,52.232567 100.024803,58.642460
	C98.745972,60.871620 97.325264,63.139721 95.510040,64.922318
	C76.268539,83.817940 61.980503,106.054466 50.921719,130.500870
	C42.314850,149.527115 36.373508,169.333389 34.063164,190.110107
	C33.012009,199.563034 32.725018,209.098999 31.979078,218.588455
	C31.485554,224.866791 30.232880,230.947174 24.530861,234.780975
	C17.485018,239.518341 8.171334,237.410400 2.997367,230.128891
	C2.678908,229.680710 2.159679,229.375198 1.366932,229.001648
	C1.000000,215.979111 1.000000,202.958206 1.000000,189.468658
z"/>
<path fill="#FFFFFF" opacity="1.000000" stroke="none"
	d="
M513.000000,228.531342
	C512.341187,229.311783 511.435150,229.445007 511.061340,229.962616
	C506.720551,235.973129 500.482880,238.922379 494.011353,236.839554
	C487.800110,234.840546 483.446747,230.633759 482.981842,223.506546
	C482.727112,219.601608 482.085876,215.708572 482.042328,211.805450
	C481.846924,194.298782 478.539581,177.288986 473.978271,160.489670
	C467.003540,134.801682 455.149200,111.359558 439.823242,89.772064
	C433.497925,80.862495 425.559509,73.095093 418.319672,64.838989
	C413.773712,59.654903 410.861755,54.360886 412.490875,46.796108
	C414.809540,36.029747 430.544067,31.720032 439.508972,41.014160
	C452.659027,54.647099 464.650177,69.260628 474.607269,85.343864
	C485.177002,102.416611 494.026764,120.421623 500.206696,139.620010
	C505.249176,155.284714 509.472900,171.136948 511.061584,187.589569
	C511.129517,188.293015 511.852325,188.933197 512.635010,189.301422
	C513.000000,202.020889 513.000000,215.041794 513.000000,228.531342
z"/>
<path fill="#FFFFFF" opacity="1.000000" stroke="none"
	d="
M413.753754,387.357178
	C417.164490,394.347626 419.044739,400.915802 414.077911,407.731934
	C410.675842,412.400604 405.984589,413.941345 400.664551,413.963104
	C379.013336,414.051758 357.361511,414.000000 335.394348,414.000000
	C331.604858,431.601013 323.465088,446.905334 309.755188,458.554352
	C292.268005,473.412933 271.674530,480.417511 248.787979,477.857330
	C213.976669,473.963226 186.167511,449.772278 178.698593,414.000000
	C160.808228,414.000000 142.838715,414.004944 124.869194,413.996826
	C119.873283,413.994568 114.704353,414.777771 109.914726,413.772125
	C96.824478,411.023743 94.197517,399.633942 99.219543,389.465851
	C108.485085,370.705902 117.929947,352.034424 127.172722,333.263397
	C128.204178,331.168671 128.911743,328.670197 128.923050,326.354858
	C129.046097,301.197052 128.758057,276.035522 129.063568,250.880829
	C129.415039,221.943237 139.341049,196.263245 157.024765,173.553589
	C168.938492,158.253845 184.090439,146.635071 201.512115,138.560059
	C207.652573,135.713943 210.318710,132.247360 212.053497,126.314545
	C217.748413,106.838211 236.588684,93.927361 256.084412,93.851883
	C268.961670,93.802017 280.045593,97.825691 289.388245,106.127312
	C296.218842,112.196808 300.878143,120.096588 302.939728,129.171295
	C303.752502,132.749054 304.794495,135.619629 308.669769,137.010605
	C320.370117,141.210251 330.133179,148.586990 339.770325,156.213699
	C352.913757,166.615234 362.669617,179.807816 370.539612,194.303848
	C376.748413,205.740036 381.191864,218.068893 382.951263,231.075714
	C387.197784,262.469635 384.024109,294.049988 385.075317,325.527313
	C385.169067,328.334869 385.832092,331.346680 387.060913,333.857300
	C395.764496,351.640228 404.684906,369.317047 413.753754,387.357178
M354.000000,268.500000
	C353.333923,257.676941 353.292877,246.770142 351.856812,236.050217
	C349.645447,219.543167 342.243835,204.935715 331.633911,192.366058
	C319.053162,177.461548 303.535431,166.417404 284.435028,160.947144
	C277.783783,159.042252 274.119812,153.453796 273.955414,146.496063
	C273.882874,143.425797 273.819977,140.208969 272.900085,137.331238
	C269.528046,126.781914 258.745819,121.204720 248.931763,127.092682
	C241.996552,131.253464 239.858749,138.176865 239.973206,146.005325
	C240.087311,153.808823 236.560486,158.607422 229.065979,161.006866
	C209.648453,167.223602 193.743515,178.350311 181.053360,194.356247
	C167.385147,211.595795 160.409515,231.211411 160.091049,253.014694
	C159.706619,279.334564 160.103607,305.665161 159.882782,331.988800
	C159.851425,335.725128 158.857040,339.738556 157.255585,343.126068
	C151.018875,356.318329 144.358154,369.310120 137.656464,382.775696
	C217.411285,382.775696 296.591339,382.775696 376.345490,382.775696
	C369.639038,369.303589 362.976440,356.312103 356.738983,343.119598
	C355.137512,339.732361 354.162750,335.719696 354.118439,331.979950
	C353.871796,311.155762 354.000000,290.327118 354.000000,268.500000
M285.498169,414.000000
	C260.701111,414.000000 235.904037,414.000000 210.800125,414.000000
	C219.810928,437.103638 240.156708,449.153564 262.167023,446.869690
	C279.306885,445.091187 296.261566,433.755432 302.918671,414.000000
	C297.351868,414.000000 291.924561,414.000000 285.498169,414.000000
z"/>
<path fill="#FFFFFF" opacity="1.000000" stroke="none"
	d="
M70.898956,234.390945
	C66.455368,230.610931 64.914299,226.257858 64.899193,220.718124
	C64.823814,193.074890 70.599312,166.750824 82.053581,141.659851
	C89.873589,124.529846 99.897354,108.824799 112.589058,94.822449
	C117.272522,89.655319 121.114708,84.054352 128.474976,81.747185
	C136.198837,79.326042 147.927734,85.786392 147.463562,97.298714
	C147.171600,104.539871 142.515549,108.563179 138.438797,112.871986
	C122.856705,129.341110 111.637978,148.468613 104.313004,169.674683
	C98.913696,185.305878 95.051437,201.601257 96.146645,218.342041
	C97.007545,231.501434 85.255272,242.022507 70.898956,234.390945
z"/>
<path fill="#FFFFFF" opacity="1.000000" stroke="none"
	d="
M415.291565,191.666870 
	C412.024200,180.832779 409.584045,170.152817 405.852448,159.944962 
	C400.333221,144.847031 391.025604,131.783630 381.424988,119.037079 
	C378.069122,114.581543 373.949524,110.693741 370.106567,106.614616 
	C365.978394,102.232742 365.500000,93.188293 369.186646,87.463364 
	C372.077515,82.974304 380.094086,80.672905 385.518127,81.816353 
	C391.361084,83.048126 394.910919,87.076523 398.455444,91.043823 
	C410.992310,105.076012 421.781189,120.377457 429.981781,137.348068 
	C437.700104,153.320541 443.680664,169.952377 445.933441,187.640625 
	C447.358612,198.830658 448.332611,210.103470 448.898590,221.369812 
	C449.370697,230.768417 443.143738,236.561523 434.140625,237.102448 
	C426.223846,237.578094 418.291748,230.346848 417.908997,221.415955 
	C417.488617,211.605545 416.360748,201.825470 415.291565,191.666870 
z"/>
<path fill="#000000" opacity="1.000000" stroke="none" 
	d="
M354.000000,269.000000 
	C354.000000,290.327118 353.871796,311.155762 354.118439,331.979950 
	C354.162750,335.719696 355.137512,339.732361 356.738983,343.119598 
	C362.976440,356.312103 369.639038,369.303589 376.345490,382.775696 
	C296.591339,382.775696 217.411285,382.775696 137.656464,382.775696 
	C144.358154,369.310120 151.018875,356.318329 157.255585,343.126068 
	C158.857040,339.738556 159.851425,335.725128 159.882782,331.988800 
	C160.103607,305.665161 159.706619,279.334564 160.091049,253.014694 
	C160.409515,231.211411 167.385147,211.595795 181.053360,194.356247 
	C193.743515,178.350311 209.648453,167.223602 229.065979,161.006866 
	C236.560486,158.607422 240.087311,153.808823 239.973206,146.005325 
	C239.858749,138.176865 241.996552,131.253464 248.931763,127.092682 
	C258.745819,121.204720 269.528046,126.781914 272.900085,137.331238 
	C273.819977,140.208969 273.882874,143.425797 273.955414,146.496063 
	C274.119812,153.453796 277.783783,159.042252 284.435028,160.947144 
	C303.535431,166.417404 319.053162,177.461548 331.633911,192.366058 
	C342.243835,204.935715 349.645447,219.543167 351.856812,236.050217 
	C353.292877,246.770142 353.333923,257.676941 354.000000,269.000000 
z"/>
<path fill="#000000" opacity="1.000000" stroke="none"
	d="
M285.997681,414.000000
	C291.924561,414.000000 297.351868,414.000000 302.918671,414.000000
	C296.261566,433.755432 279.306885,445.091187 262.167023,446.869690
	C240.156708,449.153564 219.810928,437.103638 210.800125,414.000000
	C235.904037,414.000000 260.701111,414.000000 285.997681,414.000000
z"/>
</svg>